<mxfile host="app.diagrams.net" modified="2021-09-26T13:09:15.886Z" agent="5.0 (X11; Linux x86_64) AppleWebKit/537.36 (KHTML, like Gecko) Chrome/92.0.4515.159 Safari/537.36" etag="BxRNc4i4MsN_FAVywrVF" version="15.3.3" type="github">
  <diagram id="WSoMUmLfoQXF-wyYg_kG" name="Page-1">
    <mxGraphModel dx="868" dy="462" grid="1" gridSize="10" guides="1" tooltips="1" connect="1" arrows="1" fold="1" page="1" pageScale="1" pageWidth="827" pageHeight="1169" math="0" shadow="0">
      <root>
        <mxCell id="0" />
        <mxCell id="1" parent="0" />
        <mxCell id="xHNiPRdgHvtMHtqMVnw4-4" style="edgeStyle=none;rounded=0;orthogonalLoop=1;jettySize=auto;html=1;exitX=0.5;exitY=1;exitDx=0;exitDy=0;entryX=0.5;entryY=0;entryDx=0;entryDy=0;endArrow=open;startSize=14;endSize=14;sourcePerimeterSpacing=8;targetPerimeterSpacing=8;" edge="1" parent="1" source="xHNiPRdgHvtMHtqMVnw4-2" target="xHNiPRdgHvtMHtqMVnw4-3">
          <mxGeometry relative="1" as="geometry" />
        </mxCell>
        <mxCell id="xHNiPRdgHvtMHtqMVnw4-2" value="INICIO" style="rounded=1;whiteSpace=wrap;html=1;hachureGap=4;pointerEvents=0;" vertex="1" parent="1">
          <mxGeometry x="40" y="20" width="120" height="60" as="geometry" />
        </mxCell>
        <mxCell id="xHNiPRdgHvtMHtqMVnw4-8" style="edgeStyle=none;rounded=0;orthogonalLoop=1;jettySize=auto;html=1;exitX=0.5;exitY=1;exitDx=0;exitDy=0;entryX=0.5;entryY=0;entryDx=0;entryDy=0;endArrow=open;startSize=14;endSize=14;sourcePerimeterSpacing=8;targetPerimeterSpacing=8;" edge="1" parent="1" source="xHNiPRdgHvtMHtqMVnw4-3" target="xHNiPRdgHvtMHtqMVnw4-7">
          <mxGeometry relative="1" as="geometry" />
        </mxCell>
        <mxCell id="xHNiPRdgHvtMHtqMVnw4-3" value="a = 1&lt;span style=&quot;white-space: pre&quot;&gt;	&lt;/span&gt;f = 6&lt;br&gt;b = 2&lt;span style=&quot;white-space: pre&quot;&gt;	&lt;/span&gt;g = 7&lt;br&gt;c = 3&lt;span style=&quot;white-space: pre&quot;&gt;	&lt;/span&gt;h = 8&lt;br&gt;d= 4&lt;span style=&quot;white-space: pre&quot;&gt;	&lt;/span&gt;&lt;span style=&quot;white-space: pre&quot;&gt;	&lt;/span&gt;i = 9&lt;br&gt;e = 5&lt;span style=&quot;white-space: pre&quot;&gt;	&lt;/span&gt;j = 10" style="rounded=0;whiteSpace=wrap;html=1;hachureGap=4;pointerEvents=0;" vertex="1" parent="1">
          <mxGeometry x="35" y="110" width="130" height="80" as="geometry" />
        </mxCell>
        <mxCell id="xHNiPRdgHvtMHtqMVnw4-48" style="edgeStyle=none;rounded=0;orthogonalLoop=1;jettySize=auto;html=1;exitX=0.5;exitY=1;exitDx=0;exitDy=0;entryX=0.5;entryY=0;entryDx=0;entryDy=0;endArrow=open;startSize=14;endSize=14;sourcePerimeterSpacing=8;targetPerimeterSpacing=8;" edge="1" parent="1" source="xHNiPRdgHvtMHtqMVnw4-7" target="xHNiPRdgHvtMHtqMVnw4-47">
          <mxGeometry relative="1" as="geometry" />
        </mxCell>
        <mxCell id="xHNiPRdgHvtMHtqMVnw4-7" value="a + b + c + d + e&lt;br&gt;+ f + g + h + i + j" style="shape=parallelogram;perimeter=parallelogramPerimeter;whiteSpace=wrap;html=1;fixedSize=1;hachureGap=4;pointerEvents=0;" vertex="1" parent="1">
          <mxGeometry x="27.5" y="230" width="145" height="70" as="geometry" />
        </mxCell>
        <mxCell id="xHNiPRdgHvtMHtqMVnw4-11" style="edgeStyle=none;rounded=0;orthogonalLoop=1;jettySize=auto;html=1;exitX=0.5;exitY=1;exitDx=0;exitDy=0;entryX=0.5;entryY=0;entryDx=0;entryDy=0;endArrow=open;startSize=14;endSize=14;sourcePerimeterSpacing=8;targetPerimeterSpacing=8;" edge="1" parent="1" source="xHNiPRdgHvtMHtqMVnw4-9" target="xHNiPRdgHvtMHtqMVnw4-10">
          <mxGeometry relative="1" as="geometry" />
        </mxCell>
        <mxCell id="xHNiPRdgHvtMHtqMVnw4-9" value="INICIO" style="rounded=1;whiteSpace=wrap;html=1;hachureGap=4;pointerEvents=0;" vertex="1" parent="1">
          <mxGeometry x="210" y="20" width="120" height="60" as="geometry" />
        </mxCell>
        <mxCell id="xHNiPRdgHvtMHtqMVnw4-17" style="edgeStyle=none;rounded=0;orthogonalLoop=1;jettySize=auto;html=1;exitX=0.5;exitY=1;exitDx=0;exitDy=0;entryX=0.5;entryY=0;entryDx=0;entryDy=0;endArrow=open;startSize=14;endSize=14;sourcePerimeterSpacing=8;targetPerimeterSpacing=8;" edge="1" parent="1" source="xHNiPRdgHvtMHtqMVnw4-10" target="xHNiPRdgHvtMHtqMVnw4-16">
          <mxGeometry relative="1" as="geometry" />
        </mxCell>
        <mxCell id="xHNiPRdgHvtMHtqMVnw4-10" value="&quot;Introduce 10&amp;nbsp;&lt;br&gt;valores para&lt;br&gt;10 datos&quot;" style="shape=parallelogram;perimeter=parallelogramPerimeter;whiteSpace=wrap;html=1;fixedSize=1;hachureGap=4;pointerEvents=0;" vertex="1" parent="1">
          <mxGeometry x="200" y="110" width="140" height="80" as="geometry" />
        </mxCell>
        <mxCell id="xHNiPRdgHvtMHtqMVnw4-19" style="edgeStyle=none;rounded=0;orthogonalLoop=1;jettySize=auto;html=1;exitX=0.5;exitY=1;exitDx=0;exitDy=0;entryX=0.5;entryY=0;entryDx=0;entryDy=0;endArrow=open;startSize=14;endSize=14;sourcePerimeterSpacing=8;targetPerimeterSpacing=8;" edge="1" parent="1" source="xHNiPRdgHvtMHtqMVnw4-16" target="xHNiPRdgHvtMHtqMVnw4-18">
          <mxGeometry relative="1" as="geometry" />
        </mxCell>
        <mxCell id="xHNiPRdgHvtMHtqMVnw4-16" value="&lt;span&gt;resultado =&lt;br&gt;a + b + c + d + e&lt;/span&gt;&lt;br&gt;&lt;span&gt;+ f + g + h + i + j&lt;/span&gt;" style="rounded=0;whiteSpace=wrap;html=1;hachureGap=4;pointerEvents=0;" vertex="1" parent="1">
          <mxGeometry x="205" y="230" width="130" height="70" as="geometry" />
        </mxCell>
        <mxCell id="xHNiPRdgHvtMHtqMVnw4-21" style="edgeStyle=none;rounded=0;orthogonalLoop=1;jettySize=auto;html=1;exitX=0.5;exitY=1;exitDx=0;exitDy=0;entryX=0.5;entryY=0;entryDx=0;entryDy=0;endArrow=open;startSize=14;endSize=14;sourcePerimeterSpacing=8;targetPerimeterSpacing=8;" edge="1" parent="1" source="xHNiPRdgHvtMHtqMVnw4-18" target="xHNiPRdgHvtMHtqMVnw4-20">
          <mxGeometry relative="1" as="geometry" />
        </mxCell>
        <mxCell id="xHNiPRdgHvtMHtqMVnw4-18" value="resultado" style="shape=parallelogram;perimeter=parallelogramPerimeter;whiteSpace=wrap;html=1;fixedSize=1;hachureGap=4;pointerEvents=0;" vertex="1" parent="1">
          <mxGeometry x="207.5" y="320" width="125" height="40" as="geometry" />
        </mxCell>
        <mxCell id="xHNiPRdgHvtMHtqMVnw4-49" style="edgeStyle=none;rounded=0;orthogonalLoop=1;jettySize=auto;html=1;exitX=0.5;exitY=1;exitDx=0;exitDy=0;entryX=0.5;entryY=0;entryDx=0;entryDy=0;endArrow=open;startSize=14;endSize=14;sourcePerimeterSpacing=8;targetPerimeterSpacing=8;" edge="1" parent="1" source="xHNiPRdgHvtMHtqMVnw4-20" target="xHNiPRdgHvtMHtqMVnw4-46">
          <mxGeometry relative="1" as="geometry" />
        </mxCell>
        <mxCell id="xHNiPRdgHvtMHtqMVnw4-20" value="resultado / 10" style="shape=parallelogram;perimeter=parallelogramPerimeter;whiteSpace=wrap;html=1;fixedSize=1;hachureGap=4;pointerEvents=0;" vertex="1" parent="1">
          <mxGeometry x="207.5" y="380" width="125" height="40" as="geometry" />
        </mxCell>
        <mxCell id="xHNiPRdgHvtMHtqMVnw4-33" style="edgeStyle=orthogonalEdgeStyle;rounded=0;orthogonalLoop=1;jettySize=auto;html=1;exitX=0.5;exitY=1;exitDx=0;exitDy=0;entryX=0.5;entryY=0;entryDx=0;entryDy=0;endArrow=open;startSize=14;endSize=14;sourcePerimeterSpacing=8;targetPerimeterSpacing=8;" edge="1" parent="1" source="xHNiPRdgHvtMHtqMVnw4-23" target="xHNiPRdgHvtMHtqMVnw4-24">
          <mxGeometry relative="1" as="geometry" />
        </mxCell>
        <mxCell id="xHNiPRdgHvtMHtqMVnw4-23" value="INICIO" style="rounded=1;whiteSpace=wrap;html=1;hachureGap=4;pointerEvents=0;" vertex="1" parent="1">
          <mxGeometry x="420" y="20" width="120" height="60" as="geometry" />
        </mxCell>
        <mxCell id="xHNiPRdgHvtMHtqMVnw4-26" style="edgeStyle=none;rounded=0;orthogonalLoop=1;jettySize=auto;html=1;exitX=0.5;exitY=1;exitDx=0;exitDy=0;entryX=0.5;entryY=0;entryDx=0;entryDy=0;endArrow=open;startSize=14;endSize=14;sourcePerimeterSpacing=8;targetPerimeterSpacing=8;" edge="1" parent="1" source="xHNiPRdgHvtMHtqMVnw4-24" target="xHNiPRdgHvtMHtqMVnw4-25">
          <mxGeometry relative="1" as="geometry">
            <Array as="points">
              <mxPoint x="480" y="190" />
            </Array>
          </mxGeometry>
        </mxCell>
        <mxCell id="xHNiPRdgHvtMHtqMVnw4-24" value="valor = 1" style="rounded=0;whiteSpace=wrap;html=1;hachureGap=4;pointerEvents=0;" vertex="1" parent="1">
          <mxGeometry x="420" y="110" width="120" height="60" as="geometry" />
        </mxCell>
        <mxCell id="xHNiPRdgHvtMHtqMVnw4-27" style="edgeStyle=none;rounded=0;orthogonalLoop=1;jettySize=auto;html=1;exitX=0.5;exitY=1;exitDx=0;exitDy=0;endArrow=open;startSize=14;endSize=14;sourcePerimeterSpacing=8;targetPerimeterSpacing=8;entryX=0.5;entryY=0;entryDx=0;entryDy=0;" edge="1" parent="1" source="xHNiPRdgHvtMHtqMVnw4-25" target="xHNiPRdgHvtMHtqMVnw4-30">
          <mxGeometry relative="1" as="geometry">
            <mxPoint x="530" y="320" as="targetPoint" />
          </mxGeometry>
        </mxCell>
        <mxCell id="xHNiPRdgHvtMHtqMVnw4-29" style="edgeStyle=orthogonalEdgeStyle;rounded=0;orthogonalLoop=1;jettySize=auto;html=1;exitX=1;exitY=0.5;exitDx=0;exitDy=0;endArrow=open;startSize=14;endSize=14;sourcePerimeterSpacing=8;targetPerimeterSpacing=8;entryX=1;entryY=0.5;entryDx=0;entryDy=0;" edge="1" parent="1" source="xHNiPRdgHvtMHtqMVnw4-25" target="xHNiPRdgHvtMHtqMVnw4-45">
          <mxGeometry relative="1" as="geometry">
            <mxPoint x="535" y="480" as="targetPoint" />
            <Array as="points">
              <mxPoint x="560" y="250" />
              <mxPoint x="560" y="480" />
            </Array>
          </mxGeometry>
        </mxCell>
        <mxCell id="xHNiPRdgHvtMHtqMVnw4-25" value="valor &amp;lt;= 99" style="rhombus;whiteSpace=wrap;html=1;hachureGap=4;pointerEvents=0;" vertex="1" parent="1">
          <mxGeometry x="425" y="210" width="110" height="80" as="geometry" />
        </mxCell>
        <mxCell id="xHNiPRdgHvtMHtqMVnw4-31" style="edgeStyle=orthogonalEdgeStyle;rounded=0;orthogonalLoop=1;jettySize=auto;html=1;endArrow=open;startSize=14;endSize=14;sourcePerimeterSpacing=8;targetPerimeterSpacing=8;" edge="1" parent="1">
          <mxGeometry relative="1" as="geometry">
            <mxPoint x="520" y="390" as="targetPoint" />
            <mxPoint x="520" y="390" as="sourcePoint" />
          </mxGeometry>
        </mxCell>
        <mxCell id="xHNiPRdgHvtMHtqMVnw4-37" style="edgeStyle=none;rounded=0;orthogonalLoop=1;jettySize=auto;html=1;exitX=0.5;exitY=1;exitDx=0;exitDy=0;entryX=0.5;entryY=0;entryDx=0;entryDy=0;endArrow=open;startSize=14;endSize=14;sourcePerimeterSpacing=8;targetPerimeterSpacing=8;" edge="1" parent="1" source="xHNiPRdgHvtMHtqMVnw4-30" target="xHNiPRdgHvtMHtqMVnw4-34">
          <mxGeometry relative="1" as="geometry" />
        </mxCell>
        <mxCell id="xHNiPRdgHvtMHtqMVnw4-30" value="valor" style="shape=parallelogram;perimeter=parallelogramPerimeter;whiteSpace=wrap;html=1;fixedSize=1;hachureGap=4;pointerEvents=0;" vertex="1" parent="1">
          <mxGeometry x="420" y="320" width="120" height="40" as="geometry" />
        </mxCell>
        <mxCell id="xHNiPRdgHvtMHtqMVnw4-35" style="edgeStyle=orthogonalEdgeStyle;rounded=0;orthogonalLoop=1;jettySize=auto;html=1;exitX=0;exitY=0.5;exitDx=0;exitDy=0;endArrow=open;startSize=14;endSize=14;sourcePerimeterSpacing=8;targetPerimeterSpacing=8;" edge="1" parent="1" source="xHNiPRdgHvtMHtqMVnw4-34">
          <mxGeometry relative="1" as="geometry">
            <mxPoint x="480" y="190" as="targetPoint" />
            <Array as="points">
              <mxPoint x="400" y="410" />
              <mxPoint x="400" y="190" />
            </Array>
          </mxGeometry>
        </mxCell>
        <mxCell id="xHNiPRdgHvtMHtqMVnw4-34" value="valor += 2" style="rounded=0;whiteSpace=wrap;html=1;hachureGap=4;pointerEvents=0;" vertex="1" parent="1">
          <mxGeometry x="420" y="390" width="120" height="40" as="geometry" />
        </mxCell>
        <mxCell id="xHNiPRdgHvtMHtqMVnw4-40" value="&lt;b&gt;V&lt;/b&gt;" style="text;html=1;strokeColor=none;fillColor=none;align=center;verticalAlign=middle;whiteSpace=wrap;rounded=0;hachureGap=4;pointerEvents=0;strokeWidth=3;" vertex="1" parent="1">
          <mxGeometry x="480" y="280" width="40" height="20" as="geometry" />
        </mxCell>
        <mxCell id="xHNiPRdgHvtMHtqMVnw4-43" value="&lt;b&gt;F&lt;/b&gt;" style="text;html=1;strokeColor=none;fillColor=none;align=center;verticalAlign=middle;whiteSpace=wrap;rounded=0;hachureGap=4;pointerEvents=0;strokeWidth=3;" vertex="1" parent="1">
          <mxGeometry x="530" y="230" width="40" height="20" as="geometry" />
        </mxCell>
        <mxCell id="xHNiPRdgHvtMHtqMVnw4-45" value="FIN" style="rounded=1;whiteSpace=wrap;html=1;hachureGap=4;pointerEvents=0;" vertex="1" parent="1">
          <mxGeometry x="420" y="450" width="120" height="60" as="geometry" />
        </mxCell>
        <mxCell id="xHNiPRdgHvtMHtqMVnw4-46" value="FIN" style="rounded=1;whiteSpace=wrap;html=1;hachureGap=4;pointerEvents=0;" vertex="1" parent="1">
          <mxGeometry x="210" y="450" width="120" height="60" as="geometry" />
        </mxCell>
        <mxCell id="xHNiPRdgHvtMHtqMVnw4-47" value="FIN" style="rounded=1;whiteSpace=wrap;html=1;hachureGap=4;pointerEvents=0;" vertex="1" parent="1">
          <mxGeometry x="40" y="330" width="120" height="60" as="geometry" />
        </mxCell>
        <mxCell id="xHNiPRdgHvtMHtqMVnw4-52" style="edgeStyle=none;rounded=0;orthogonalLoop=1;jettySize=auto;html=1;exitX=0.5;exitY=1;exitDx=0;exitDy=0;entryX=0.5;entryY=0;entryDx=0;entryDy=0;endArrow=open;startSize=14;endSize=14;sourcePerimeterSpacing=8;targetPerimeterSpacing=8;" edge="1" parent="1" source="xHNiPRdgHvtMHtqMVnw4-50" target="xHNiPRdgHvtMHtqMVnw4-51">
          <mxGeometry relative="1" as="geometry" />
        </mxCell>
        <mxCell id="xHNiPRdgHvtMHtqMVnw4-50" value="INICIO" style="rounded=1;whiteSpace=wrap;html=1;hachureGap=4;pointerEvents=0;" vertex="1" parent="1">
          <mxGeometry x="640" y="20" width="120" height="60" as="geometry" />
        </mxCell>
        <mxCell id="xHNiPRdgHvtMHtqMVnw4-54" style="edgeStyle=none;rounded=0;orthogonalLoop=1;jettySize=auto;html=1;exitX=0.5;exitY=1;exitDx=0;exitDy=0;entryX=0.5;entryY=0;entryDx=0;entryDy=0;endArrow=open;startSize=14;endSize=14;sourcePerimeterSpacing=8;targetPerimeterSpacing=8;" edge="1" parent="1" source="xHNiPRdgHvtMHtqMVnw4-51" target="xHNiPRdgHvtMHtqMVnw4-53">
          <mxGeometry relative="1" as="geometry" />
        </mxCell>
        <mxCell id="xHNiPRdgHvtMHtqMVnw4-51" value="&quot;Introduce &lt;br&gt;2 números&quot;" style="shape=parallelogram;perimeter=parallelogramPerimeter;whiteSpace=wrap;html=1;fixedSize=1;hachureGap=4;pointerEvents=0;" vertex="1" parent="1">
          <mxGeometry x="630" y="110" width="140" height="60" as="geometry" />
        </mxCell>
        <mxCell id="xHNiPRdgHvtMHtqMVnw4-53" value="a + b&lt;br&gt;a - b&lt;br&gt;a * b&lt;br&gt;a / b" style="shape=parallelogram;perimeter=parallelogramPerimeter;whiteSpace=wrap;html=1;fixedSize=1;hachureGap=4;pointerEvents=0;strokeWidth=1;" vertex="1" parent="1">
          <mxGeometry x="640" y="210" width="120" height="60" as="geometry" />
        </mxCell>
      </root>
    </mxGraphModel>
  </diagram>
</mxfile>
